<?xml version="1.0" encoding="UTF-8" standalone="no"?>
<svg
   width="61mm"
   height="129mm"
   viewBox="0 -129 61 129"
   version="1.1"
   id="svg1"
   sodipodi:docname="myriad panel.svg"
   inkscape:version="1.3.1 (9b9bdc1480, 2023-11-25, custom)"
   xmlns:inkscape="http://www.inkscape.org/namespaces/inkscape"
   xmlns:sodipodi="http://sodipodi.sourceforge.net/DTD/sodipodi-0.dtd"
   xmlns="http://www.w3.org/2000/svg"
   xmlns:svg="http://www.w3.org/2000/svg">
  <defs
     id="defs1" />
  <sodipodi:namedview
     id="namedview1"
     pagecolor="#ffffff"
     bordercolor="#000000"
     borderopacity="0.25"
     inkscape:showpageshadow="2"
     inkscape:pageopacity="0.0"
     inkscape:pagecheckerboard="0"
     inkscape:deskcolor="#d1d1d1"
     inkscape:document-units="mm"
     inkscape:zoom="1.369083"
     inkscape:cx="52.589946"
     inkscape:cy="223.50727"
     inkscape:window-width="1854"
     inkscape:window-height="1131"
     inkscape:window-x="66"
     inkscape:window-y="32"
     inkscape:window-maximized="1"
     inkscape:current-layer="svg1" />
  <title
     id="title1">OpenSCAD Model</title>
  <path
     d="M 60.96,-128.5 H 0 V 0 h 60.96 z m -1.524,3.4125 -0.07831,0.49443 -0.22726,0.44603 -0.35397,0.35397 -0.44603,0.22726 -0.49443,0.0783 h -3.912 l -0.49443,-0.0783 -0.44603,-0.22726 -0.35397,-0.35397 -0.22726,-0.44603 -0.07831,-0.49443 0.07831,-0.49443 0.22726,-0.44603 0.35397,-0.35397 0.44603,-0.22726 0.49443,-0.0783 h 3.912 l 0.49443,0.0783 0.44603,0.22726 0.35397,0.35397 0.22726,0.44603 z m 0,121.6755 -0.07831,0.494 -0.22726,0.446 -0.35397,0.354 -0.44603,0.227 -0.49443,0.078 h -3.912 l -0.49443,-0.078 -0.44603,-0.227 -0.35397,-0.354 -0.22726,-0.446 -0.07831,-0.494 0.07831,-0.495 0.22726,-0.446 0.35397,-0.354 0.44603,-0.227 0.49443,-0.078 h 3.912 l 0.49443,0.078 0.44603,0.227 0.35397,0.354 0.22726,0.446 z m -3.976,-31.378 -0.0042,0.1717 -0.01263,0.1714 -0.02103,0.1705 -0.02937,0.1692 -0.03764,0.1676 -0.04582,0.1656 -0.05389,0.1631 -0.06182,0.1603 -0.06962,0.157 -0.07723,0.1535 -0.08468,0.1495 -0.09191,0.1451 -0.09891,0.1404 -0.10569,0.1355 -0.11221,0.1301 -0.11846,0.1244 -0.12441,0.1184 -0.13008,0.1122 -0.13543,0.1057 -0.14045,0.0989 -0.14514,0.0919 -0.14947,0.0847 -0.15345,0.0773 -0.15705,0.0696 -0.16027,0.0618 -0.16312,0.0539 -0.16557,0.0458 -0.16761,0.0376 -0.16926,0.0294 -0.1705,0.021 -0.17132,0.0127 -0.17174,0.0042 -0.17174,-0.0042 -0.17132,-0.0127 -0.1705,-0.021 -0.16926,-0.0294 -0.16761,-0.0376 -0.16557,-0.0458 -0.1631,-0.0539 -0.1603,-0.0618 -0.157,-0.0696 -0.1535,-0.0773 -0.1495,-0.0847 -0.1451,-0.0919 -0.1404,-0.0989 -0.1355,-0.1057 -0.1301,-0.1122 -0.1244,-0.1184 -0.1184,-0.1244 -0.1122,-0.1301 -0.1057,-0.1355 -0.0989,-0.1404 -0.0919,-0.1451 -0.0847,-0.1495 -0.0773,-0.1535 -0.0696,-0.157 -0.0618,-0.1603 -0.0539,-0.1631 -0.0458,-0.1656 -0.0376,-0.1676 -0.0294,-0.1692 -0.021,-0.1705 -0.0127,-0.1714 -0.0042,-0.1717 0.0042,-0.1717 0.0127,-0.1714 0.021,-0.1705 0.0294,-0.1692 0.0376,-0.1676 0.0458,-0.1656 0.0539,-0.1631 0.0618,-0.1603 0.0696,-0.157 0.0773,-0.1535 0.0847,-0.1495 0.0919,-0.1451 0.0989,-0.1404 0.1057,-0.1355 0.1122,-0.1301 0.1184,-0.1244 0.1244,-0.1184 0.1301,-0.1122 0.1355,-0.1057 0.1404,-0.0989 0.1451,-0.092 0.1495,-0.0846 0.1535,-0.0773 0.157,-0.0696 0.1603,-0.0618 0.1631,-0.0539 0.16557,-0.0458 0.16761,-0.0376 0.16926,-0.0294 0.1705,-0.021 0.17132,-0.0127 0.17174,-0.0042 0.17174,0.0042 0.17132,0.0127 0.1705,0.021 0.16926,0.0294 0.16761,0.0376 0.16557,0.0458 0.16312,0.0539 0.16027,0.0618 0.15705,0.0696 0.15345,0.0773 0.14947,0.0846 0.14514,0.092 0.14045,0.0989 0.13543,0.1057 0.13008,0.1122 0.12441,0.1184 0.11846,0.1244 0.11221,0.1301 0.10569,0.1355 0.09891,0.1404 0.09191,0.1451 0.08468,0.1495 0.07723,0.1535 0.06962,0.157 0.06182,0.1603 0.05389,0.1631 0.04582,0.1656 0.03764,0.1676 0.02937,0.1692 0.02103,0.1705 0.01263,0.1714 z m 0,17.16 -0.0042,0.172 -0.01263,0.171 -0.02103,0.171 -0.02937,0.169 -0.03764,0.167 -0.04582,0.166 -0.05389,0.163 -0.06182,0.16 -0.06962,0.157 -0.07723,0.154 -0.08468,0.149 -0.09191,0.145 -0.09891,0.141 -0.10569,0.135 -0.11221,0.13 -0.11846,0.125 -0.12441,0.118 -0.13008,0.113 -0.13543,0.105 -0.14045,0.099 -0.14514,0.092 -0.14947,0.085 -0.15345,0.077 -0.15705,0.07 -0.16027,0.061 -0.16312,0.054 -0.16557,0.046 -0.16761,0.038 -0.16926,0.029 -0.1705,0.021 -0.17132,0.013 -0.17174,0.004 -0.17174,-0.004 -0.17132,-0.013 -0.1705,-0.021 -0.16926,-0.029 -0.16761,-0.038 -0.16557,-0.046 -0.1631,-0.054 -0.1603,-0.061 -0.157,-0.07 -0.1535,-0.077 -0.1495,-0.085 -0.1451,-0.092 -0.1404,-0.099 -0.1355,-0.105 -0.1301,-0.113 -0.1244,-0.118 -0.1184,-0.125 -0.1122,-0.13 -0.1057,-0.135 -0.0989,-0.141 -0.0919,-0.145 -0.0847,-0.149 -0.0773,-0.154 -0.0696,-0.157 -0.0618,-0.16 -0.0539,-0.163 -0.0458,-0.166 -0.0376,-0.167 -0.0294,-0.169 -0.021,-0.171 -0.0127,-0.171 -0.0042,-0.172 0.0042,-0.172 0.0127,-0.171 0.021,-0.171 0.0294,-0.169 0.0376,-0.167 0.0458,-0.166 0.0539,-0.163 0.0618,-0.16 0.0696,-0.157 0.0773,-0.154 0.0847,-0.149 0.0919,-0.145 0.0989,-0.141 0.1057,-0.135 0.1122,-0.13 0.1184,-0.125 0.1244,-0.118 0.1301,-0.113 0.1355,-0.105 0.1404,-0.099 0.1451,-0.092 0.1495,-0.085 0.1535,-0.077 0.157,-0.07 0.1603,-0.061 0.1631,-0.054 0.16557,-0.046 0.16761,-0.038 0.16926,-0.029 0.1705,-0.021 0.17132,-0.013 0.17174,-0.004 0.17174,0.004 0.17132,0.013 0.1705,0.021 0.16926,0.029 0.16761,0.038 0.16557,0.046 0.16312,0.054 0.16027,0.061 0.15705,0.07 0.15345,0.077 0.14947,0.085 0.14514,0.092 0.14045,0.099 0.13543,0.105 0.13008,0.113 0.12441,0.118 0.11846,0.125 0.11221,0.13 0.10569,0.135 0.09891,0.141 0.09191,0.145 0.08468,0.149 0.07723,0.154 0.06962,0.157 0.06182,0.16 0.05389,0.163 0.04582,0.166 0.03764,0.167 0.02937,0.169 0.02103,0.171 0.01263,0.171 z m -1.5,-35.48 -0.0042,0.1717 -0.01263,0.1714 -0.02103,0.1705 -0.02937,0.1692 -0.03764,0.1676 -0.04582,0.1656 -0.05389,0.1631 -0.06182,0.1603 -0.06962,0.157 -0.07723,0.1535 -0.08468,0.1495 -0.09191,0.1451 -0.09891,0.1404 -0.10569,0.1355 -0.11221,0.1301 -0.11846,0.1244 -0.12441,0.1184 -0.13008,0.1122 -0.13543,0.1057 -0.14045,0.0989 -0.14514,0.0919 -0.14947,0.0847 -0.15345,0.0773 -0.15705,0.0696 -0.16027,0.0618 -0.16312,0.0539 -0.16557,0.0458 -0.16761,0.0376 -0.16926,0.0294 -0.17046,0.021 -0.1714,0.0127 -0.1717,0.0042 -0.1717,-0.0042 -0.1714,-0.0127 -0.1705,-0.021 -0.1692,-0.0294 -0.1676,-0.0376 -0.1656,-0.0458 -0.1631,-0.0539 -0.1603,-0.0618 -0.157,-0.0696 -0.1535,-0.0773 -0.1495,-0.0847 -0.1451,-0.0919 -0.1404,-0.0989 -0.1355,-0.1057 -0.1301,-0.1122 -0.1244,-0.1184 -0.1184,-0.1244 -0.1122,-0.1301 -0.1057,-0.1355 -0.0989,-0.1404 -0.0919,-0.1451 -0.0847,-0.1495 -0.0773,-0.1535 -0.0696,-0.157 -0.0618,-0.1603 -0.0539,-0.1631 -0.0458,-0.1656 -0.0376,-0.1676 -0.0294,-0.1692 -0.021,-0.1705 -0.0127,-0.1714 -0.0042,-0.1717 0.0042,-0.1717 0.0127,-0.1714 0.021,-0.1705 0.0294,-0.1692 0.0376,-0.1676 0.0458,-0.1656 0.0539,-0.1631 0.0618,-0.1603 0.0696,-0.157 0.0773,-0.1535 0.0847,-0.1495 0.0919,-0.1451 0.0989,-0.1404 0.1057,-0.1355 0.1122,-0.1301 0.1184,-0.1244 0.1244,-0.1184 0.1301,-0.1122 0.1355,-0.1057 0.1404,-0.0989 0.1451,-0.092 0.1495,-0.0846 0.1535,-0.0773 0.157,-0.0696 0.1603,-0.0618 0.1631,-0.0539 0.1656,-0.0458 0.1676,-0.0376 0.1692,-0.0294 0.1705,-0.021 0.1714,-0.0127 0.1717,-0.0042 0.1717,0.0042 0.1714,0.0127 0.17046,0.021 0.16926,0.0294 0.16761,0.0376 0.16557,0.0458 0.16312,0.0539 0.16027,0.0618 0.15705,0.0696 0.15345,0.0773 0.14947,0.0846 0.14514,0.092 0.14045,0.0989 0.13543,0.1057 0.13008,0.1122 0.12441,0.1184 0.11846,0.1244 0.11221,0.1301 0.10569,0.1355 0.09891,0.1404 0.09191,0.1451 0.08468,0.1495 0.07723,0.1535 0.06962,0.157 0.06182,0.1603 0.05389,0.1631 0.04582,0.1656 0.03764,0.1676 0.02937,0.1692 0.02103,0.1705 0.01263,0.1714 z m -0.33,-56.46 -0.0049,0.2012 -0.0148,0.2007 -0.02464,0.1997 -0.0344,0.1983 -0.04409,0.1963 -0.05367,0.194 -0.06313,0.191 -0.07242,0.1878 -0.08155,0.184 -0.09048,0.1797 -0.09919,0.1751 -0.10766,0.17 -0.11588,0.1646 -0.12381,0.1586 -0.13144,0.1524 -0.13876,0.1457 -0.14575,0.1388 -0.15238,0.1314 -0.15864,0.1239 -0.16453,0.1158 -0.17002,0.1077 -0.17509,0.0992 -0.17975,0.0905 -0.18398,0.0815 -0.1878,0.0724 -0.191,0.0632 -0.194,0.0536 -0.1963,0.0441 -0.1983,0.0344 -0.1997,0.0247 -0.2007,0.0148 -0.2012,0.005 -0.2012,-0.005 -0.2007,-0.0148 -0.1997,-0.0247 -0.1983,-0.0344 -0.1963,-0.0441 -0.194,-0.0536 -0.191,-0.0632 -0.1878,-0.0724 -0.184,-0.0815 -0.1797,-0.0905 -0.1751,-0.0992 -0.17,-0.1077 -0.1646,-0.1158 -0.1586,-0.1239 -0.1524,-0.1314 -0.1457,-0.1388 -0.1388,-0.1457 -0.1314,-0.1524 -0.1239,-0.1586 -0.1158,-0.1646 -0.1077,-0.17 -0.0992,-0.1751 -0.0905,-0.1797 -0.0815,-0.184 -0.0724,-0.1878 -0.0632,-0.191 -0.0536,-0.194 -0.0441,-0.1963 -0.0344,-0.1983 -0.0247,-0.1997 -0.0148,-0.2007 -0.0049,-0.2012 0.0049,-0.2012 0.0148,-0.2007 0.0247,-0.1997 0.0344,-0.1983 0.0441,-0.1963 0.0536,-0.194 0.0632,-0.191 0.0724,-0.1878 0.0815,-0.184 0.0905,-0.1797 0.0992,-0.1751 0.1077,-0.17 0.1158,-0.1646 0.1239,-0.1586 0.1314,-0.1524 0.1388,-0.1457 0.1457,-0.1388 0.1524,-0.1314 0.1586,-0.1239 0.1646,-0.1158 0.17,-0.1077 0.1751,-0.0992 0.1797,-0.0905 0.184,-0.0815 0.1878,-0.0724 0.191,-0.0632 0.194,-0.0536 0.1963,-0.0441 0.1983,-0.0344 0.1997,-0.0247 0.2007,-0.0148 0.2012,-0.005 0.2012,0.005 0.2007,0.0148 0.1997,0.0247 0.1983,0.0344 0.1963,0.0441 0.194,0.0536 0.191,0.0632 0.1878,0.0724 0.18398,0.0815 0.17975,0.0905 0.17509,0.0992 0.17002,0.1077 0.16453,0.1158 0.15864,0.1239 0.15238,0.1314 0.14575,0.1388 0.13876,0.1457 0.13144,0.1524 0.12381,0.1586 0.11588,0.1646 0.10766,0.17 0.09919,0.1751 0.09048,0.1797 0.08155,0.184 0.07242,0.1878 0.06313,0.191 0.05367,0.194 0.04409,0.1963 0.0344,0.1983 0.02464,0.1997 0.0148,0.2007 z m -6.37,30.47 -0.3715,3.5345 -1.0982,3.38 -1.777,3.0778 -2.3781,2.6412 -2.8752,2.0889 -3.2467,1.4456 -3.4763,0.7389 h -3.554 l -3.4763,-0.7389 -3.2467,-1.4456 -2.8752,-2.0889 -2.3781,-2.6412 -1.777,-3.0778 -1.0982,-3.38 -0.3715,-3.5345 0.3715,-3.5345 1.0982,-3.38 1.777,-3.0779 2.3781,-2.6411 2.8752,-2.0889 3.2467,-1.4456 3.4763,-0.7389 h 3.554 l 3.4763,0.7389 3.2467,1.4456 2.8752,2.0889 2.3781,2.6411 1.777,3.0779 1.0982,3.38 z m -3.8,42.52 -0.0042,0.1717 -0.0127,0.1714 -0.021,0.1705 -0.0294,0.1692 -0.0376,0.1676 -0.0458,0.1656 -0.0539,0.1631 -0.0618,0.1603 -0.0696,0.157 -0.0773,0.1535 -0.0846,0.1495 -0.092,0.1451 -0.0989,0.1404 -0.1057,0.1355 -0.1122,0.1301 -0.1184,0.1244 -0.1244,0.1184 -0.1301,0.1122 -0.1355,0.1057 -0.1404,0.0989 -0.1451,0.0919 -0.1495,0.0847 -0.1535,0.0773 -0.157,0.0696 -0.1603,0.0618 -0.1631,0.0539 -0.1656,0.0458 -0.1676,0.0376 -0.1692,0.0294 -0.1705,0.021 -0.1714,0.0127 -0.1717,0.0042 -0.1717,-0.0042 -0.1714,-0.0127 -0.1705,-0.021 -0.1692,-0.0294 -0.1676,-0.0376 -0.1656,-0.0458 -0.1631,-0.0539 -0.1603,-0.0618 -0.157,-0.0696 -0.1535,-0.0773 -0.1495,-0.0847 -0.1451,-0.0919 -0.1404,-0.0989 -0.1355,-0.1057 -0.1301,-0.1122 -0.1244,-0.1184 -0.1184,-0.1244 -0.1122,-0.1301 -0.1057,-0.1355 -0.0989,-0.1404 -0.0919,-0.1451 -0.0847,-0.1495 -0.0773,-0.1535 -0.0696,-0.157 -0.0618,-0.1603 -0.0539,-0.1631 -0.0458,-0.1656 -0.0376,-0.1676 -0.0294,-0.1692 -0.021,-0.1705 -0.0127,-0.1714 -0.0042,-0.1717 0.0042,-0.1717 0.0127,-0.1714 0.021,-0.1705 0.0294,-0.1692 0.0376,-0.1676 0.0458,-0.1656 0.0539,-0.1631 0.0618,-0.1603 0.0696,-0.157 0.0773,-0.1535 0.0847,-0.1495 0.0919,-0.1451 0.0989,-0.1404 0.1057,-0.1355 0.1122,-0.1301 0.1184,-0.1244 0.1244,-0.1184 0.1301,-0.1122 0.1355,-0.1057 0.1404,-0.0989 0.1451,-0.092 0.1495,-0.0846 0.1535,-0.0773 0.157,-0.0696 0.1603,-0.0618 0.1631,-0.0539 0.1656,-0.0458 0.1676,-0.0376 0.1692,-0.0294 0.1705,-0.021 0.1714,-0.0127 0.1717,-0.0042 0.1717,0.0042 0.1714,0.0127 0.1705,0.021 0.1692,0.0294 0.1676,0.0376 0.1656,0.0458 0.1631,0.0539 0.1603,0.0618 0.157,0.0696 0.1535,0.0773 0.1495,0.0846 0.1451,0.092 0.1404,0.0989 0.1355,0.1057 0.1301,0.1122 0.1244,0.1184 0.1184,0.1244 0.1122,0.1301 0.1057,0.1355 0.0989,0.1404 0.092,0.1451 0.0846,0.1495 0.0773,0.1535 0.0696,0.157 0.0618,0.1603 0.0539,0.1631 0.0458,0.1656 0.0376,0.1676 0.0294,0.1692 0.021,0.1705 0.0127,0.1714 z m -1.22,-88.5075 -0.0783,0.49443 -0.2273,0.44603 -0.3539,0.35397 -0.4461,0.22726 -0.4944,0.0783 h -3.912 l -0.4944,-0.0783 -0.4461,-0.22726 -0.3539,-0.35397 -0.2273,-0.44603 -0.0783,-0.49443 0.0783,-0.49443 0.2273,-0.44603 0.3539,-0.35397 0.4461,-0.22726 0.4944,-0.0783 h 3.912 l 0.4944,0.0783 0.4461,0.22726 0.3539,0.35397 0.2273,0.44603 z m 0,121.6755 -0.0783,0.494 -0.2273,0.446 -0.3539,0.354 -0.4461,0.227 -0.4944,0.078 h -3.912 l -0.4944,-0.078 -0.4461,-0.227 -0.3539,-0.354 -0.2273,-0.446 -0.0783,-0.494 0.0783,-0.495 0.2273,-0.446 0.3539,-0.354 0.4461,-0.227 0.4944,-0.078 h 3.912 l 0.4944,0.078 0.4461,0.227 0.3539,0.354 0.2273,0.446 z m -0.78,-19.098 -0.0042,0.172 -0.0127,0.171 -0.021,0.171 -0.0294,0.169 -0.0376,0.167 -0.0458,0.166 -0.0539,0.163 -0.0618,0.16 -0.0696,0.157 -0.0773,0.154 -0.0846,0.149 -0.092,0.145 -0.0989,0.141 -0.1057,0.135 -0.1122,0.13 -0.1184,0.125 -0.1244,0.118 -0.1301,0.113 -0.1355,0.105 -0.1404,0.099 -0.1451,0.092 -0.1495,0.085 -0.1535,0.077 -0.157,0.07 -0.1603,0.061 -0.1631,0.054 -0.1656,0.046 -0.1676,0.038 -0.1692,0.029 -0.1705,0.021 -0.1714,0.013 -0.1717,0.004 -0.1717,-0.004 -0.1714,-0.013 -0.1705,-0.021 -0.1692,-0.029 -0.1676,-0.038 -0.1656,-0.046 -0.1631,-0.054 -0.1603,-0.061 -0.157,-0.07 -0.1535,-0.077 -0.1495,-0.085 -0.1451,-0.092 -0.1404,-0.099 -0.1355,-0.105 -0.1301,-0.113 -0.1244,-0.118 -0.1184,-0.125 -0.1122,-0.13 -0.1057,-0.135 -0.0989,-0.141 -0.0919,-0.145 -0.0847,-0.149 -0.0773,-0.154 -0.0696,-0.157 -0.0618,-0.16 -0.0539,-0.163 -0.0458,-0.166 -0.0376,-0.167 -0.0294,-0.169 -0.021,-0.171 -0.0127,-0.171 -0.0042,-0.172 0.0042,-0.172 0.0127,-0.171 0.021,-0.171 0.0294,-0.169 0.0376,-0.167 0.0458,-0.166 0.0539,-0.163 0.0618,-0.16 0.0696,-0.157 0.0773,-0.154 0.0847,-0.149 0.0919,-0.145 0.0989,-0.141 0.1057,-0.135 0.1122,-0.13 0.1184,-0.125 0.1244,-0.118 0.1301,-0.113 0.1355,-0.105 0.1404,-0.099 0.1451,-0.092 0.1495,-0.085 0.1535,-0.077 0.157,-0.07 0.1603,-0.061 0.1631,-0.054 0.1656,-0.046 0.1676,-0.038 0.1692,-0.029 0.1705,-0.021 0.1714,-0.013 0.1717,-0.004 0.1717,0.004 0.1714,0.013 0.1705,0.021 0.1692,0.029 0.1676,0.038 0.1656,0.046 0.1631,0.054 0.1603,0.061 0.157,0.07 0.1535,0.077 0.1495,0.085 0.1451,0.092 0.1404,0.099 0.1355,0.105 0.1301,0.113 0.1244,0.118 0.1184,0.125 0.1122,0.13 0.1057,0.135 0.0989,0.141 0.092,0.145 0.0846,0.149 0.0773,0.154 0.0696,0.157 0.0618,0.16 0.0539,0.163 0.0458,0.166 0.0376,0.167 0.0294,0.169 0.021,0.171 0.0127,0.171 z m -1.12,-31.78 -0.0042,0.1717 -0.0127,0.1714 -0.021,0.1705 -0.0294,0.1692 -0.0376,0.1676 -0.0458,0.1656 -0.0539,0.1631 -0.0618,0.1603 -0.0696,0.157 -0.0773,0.1535 -0.0846,0.1495 -0.092,0.1451 -0.0989,0.1404 -0.1057,0.1355 -0.1122,0.1301 -0.1184,0.1244 -0.1244,0.1184 -0.1301,0.1122 -0.1355,0.1057 -0.1404,0.0989 -0.1451,0.0919 -0.1495,0.0847 -0.1535,0.0773 -0.157,0.0696 -0.1603,0.0618 -0.1631,0.0539 -0.1656,0.0458 -0.1676,0.0376 -0.1692,0.0294 -0.1705,0.021 -0.1714,0.0127 -0.1717,0.0042 -0.1717,-0.0042 -0.1714,-0.0127 -0.1705,-0.021 -0.1692,-0.0294 -0.1676,-0.0376 -0.1656,-0.0458 -0.1631,-0.0539 -0.1603,-0.0618 -0.157,-0.0696 -0.1535,-0.0773 -0.1495,-0.0847 -0.1451,-0.0919 -0.1404,-0.0989 -0.1355,-0.1057 -0.1301,-0.1122 -0.1244,-0.1184 -0.1184,-0.1244 -0.1122,-0.1301 -0.1057,-0.1355 -0.0989,-0.1404 -0.0919,-0.1451 -0.0847,-0.1495 -0.0773,-0.1535 -0.0696,-0.157 -0.0618,-0.1603 -0.0539,-0.1631 -0.0458,-0.1656 -0.0376,-0.1676 -0.0294,-0.1692 -0.021,-0.1705 -0.0127,-0.1714 -0.0042,-0.1717 0.0042,-0.1717 0.0127,-0.1714 0.021,-0.1705 0.0294,-0.1692 0.0376,-0.1676 0.0458,-0.1656 0.0539,-0.1631 0.0618,-0.1603 0.0696,-0.157 0.0773,-0.1535 0.0847,-0.1495 0.0919,-0.1451 0.0989,-0.1404 0.1057,-0.1355 0.1122,-0.1301 0.1184,-0.1244 0.1244,-0.1184 0.1301,-0.1122 0.1355,-0.1057 0.1404,-0.0989 0.1451,-0.092 0.1495,-0.0846 0.1535,-0.0773 0.157,-0.0696 0.1603,-0.0618 0.1631,-0.0539 0.1656,-0.0458 0.1676,-0.0376 0.1692,-0.0294 0.1705,-0.021 0.1714,-0.0127 0.1717,-0.0042 0.1717,0.0042 0.1714,0.0127 0.1705,0.021 0.1692,0.0294 0.1676,0.0376 0.1656,0.0458 0.1631,0.0539 0.1603,0.0618 0.157,0.0696 0.1535,0.0773 0.1495,0.0846 0.1451,0.092 0.1404,0.0989 0.1355,0.1057 0.1301,0.1122 0.1244,0.1184 0.1184,0.1244 0.1122,0.1301 0.1057,0.1355 0.0989,0.1404 0.092,0.1451 0.0846,0.1495 0.0773,0.1535 0.0696,0.157 0.0618,0.1603 0.0539,0.1631 0.0458,0.1656 0.0376,0.1676 0.0294,0.1692 0.021,0.1705 0.0127,0.1714 z m -5.85,-55.28 -0.0049,0.2012 -0.0148,0.2007 -0.0247,0.1997 -0.0344,0.1983 -0.0441,0.1963 -0.0536,0.194 -0.0632,0.191 -0.0724,0.1878 -0.0815,0.184 -0.0905,0.1797 -0.0992,0.1751 -0.1077,0.17 -0.1158,0.1646 -0.1239,0.1586 -0.1314,0.1524 -0.1388,0.1457 -0.1457,0.1388 -0.1524,0.1314 -0.1586,0.1239 -0.1646,0.1158 -0.17,0.1077 -0.1751,0.0992 -0.1797,0.0905 -0.184,0.0815 -0.1878,0.0724 -0.191,0.0632 -0.194,0.0536 -0.1963,0.0441 -0.1983,0.0344 -0.1997,0.0247 -0.2007,0.0148 -0.2012,0.005 -0.2012,-0.005 -0.2007,-0.0148 -0.1997,-0.0247 -0.1983,-0.0344 -0.1963,-0.0441 -0.194,-0.0536 -0.191,-0.0632 -0.1878,-0.0724 -0.184,-0.0815 -0.1797,-0.0905 -0.1751,-0.0992 -0.17,-0.1077 -0.1646,-0.1158 -0.1586,-0.1239 -0.1524,-0.1314 -0.1457,-0.1388 -0.1388,-0.1457 -0.1314,-0.1524 -0.1239,-0.1586 -0.1158,-0.1646 -0.1077,-0.17 -0.0992,-0.1751 -0.0905,-0.1797 -0.0815,-0.184 -0.0724,-0.1878 -0.0632,-0.191 -0.0536,-0.194 -0.0441,-0.1963 -0.0344,-0.1983 -0.0247,-0.1997 -0.0148,-0.2007 -0.0049,-0.2012 0.0049,-0.2012 0.0148,-0.2007 0.0247,-0.1997 0.0344,-0.1983 0.0441,-0.1963 0.0536,-0.194 0.0632,-0.191 0.0724,-0.1878 0.0815,-0.184 0.0905,-0.1797 0.0992,-0.1751 0.1077,-0.17 0.1158,-0.1646 0.1239,-0.1586 0.1314,-0.1524 0.1388,-0.1457 0.1457,-0.1388 0.1524,-0.1314 0.1586,-0.1239 0.1646,-0.1158 0.17,-0.1077 0.1751,-0.0992 0.1797,-0.0905 0.184,-0.0815 0.1878,-0.0724 0.191,-0.0632 0.194,-0.0536 0.1963,-0.0441 0.1983,-0.0344 0.1997,-0.0247 0.2007,-0.0148 0.2012,-0.005 0.2012,0.005 0.2007,0.0148 0.1997,0.0247 0.1983,0.0344 0.1963,0.0441 0.194,0.0536 0.191,0.0632 0.1878,0.0724 0.184,0.0815 0.1797,0.0905 0.1751,0.0992 0.17,0.1077 0.1646,0.1158 0.1586,0.1239 0.1524,0.1314 0.1457,0.1388 0.1388,0.1457 0.1314,0.1524 0.1239,0.1586 0.1158,0.1646 0.1077,0.17 0.0992,0.1751 0.0905,0.1797 0.0815,0.184 0.0724,0.1878 0.0632,0.191 0.0536,0.194 0.0441,0.1963 0.0344,0.1983 0.0247,0.1997 0.0148,0.2007 z m -7.03,87.06 -0.0042,0.172 -0.0127,0.171 -0.021,0.171 -0.0294,0.169 -0.0376,0.167 -0.0458,0.166 -0.0539,0.163 -0.0618,0.16 -0.0696,0.157 -0.0773,0.154 -0.0846,0.149 -0.092,0.145 -0.0989,0.141 -0.1057,0.135 -0.1122,0.13 -0.1184,0.125 -0.1244,0.118 -0.1301,0.113 -0.1355,0.105 -0.1404,0.099 -0.1451,0.092 -0.1495,0.085 -0.1535,0.077 -0.157,0.07 -0.1603,0.061 -0.1631,0.054 -0.1656,0.046 -0.1676,0.038 -0.1692,0.029 -0.1705,0.021 -0.1714,0.013 -0.1717,0.004 -0.1717,-0.004 -0.1714,-0.013 -0.1705,-0.021 -0.1692,-0.029 -0.1676,-0.038 -0.1656,-0.046 -0.1631,-0.054 -0.1603,-0.061 -0.157,-0.07 -0.1535,-0.077 -0.1495,-0.085 -0.1451,-0.092 -0.1404,-0.099 -0.1355,-0.105 -0.1301,-0.113 -0.1244,-0.118 -0.1184,-0.125 -0.1122,-0.13 -0.1057,-0.135 -0.0989,-0.141 -0.0919,-0.145 -0.0847,-0.149 -0.0773,-0.154 -0.0696,-0.157 -0.0618,-0.16 -0.0539,-0.163 -0.0458,-0.166 -0.0376,-0.167 -0.0294,-0.169 -0.021,-0.171 -0.0127,-0.171 -0.0042,-0.172 0.0042,-0.172 0.0127,-0.171 0.021,-0.171 0.0294,-0.169 0.0376,-0.167 0.0458,-0.166 0.0539,-0.163 0.0618,-0.16 0.0696,-0.157 0.0773,-0.154 0.0847,-0.149 0.0919,-0.145 0.0989,-0.141 0.1057,-0.135 0.1122,-0.13 0.1184,-0.125 0.1244,-0.118 0.1301,-0.113 0.1355,-0.105 0.1404,-0.099 0.1451,-0.092 0.1495,-0.085 0.1535,-0.077 0.157,-0.07 0.1603,-0.061 0.1631,-0.054 0.1656,-0.046 0.1676,-0.038 0.1692,-0.029 0.1705,-0.021 0.1714,-0.013 0.1717,-0.004 0.1717,0.004 0.1714,0.013 0.1705,0.021 0.1692,0.029 0.1676,0.038 0.1656,0.046 0.1631,0.054 0.1603,0.061 0.157,0.07 0.1535,0.077 0.1495,0.085 0.1451,0.092 0.1404,0.099 0.1355,0.105 0.1301,0.113 0.1244,0.118 0.1184,0.125 0.1122,0.13 0.1057,0.135 0.0989,0.141 0.092,0.145 0.0846,0.149 0.0773,0.154 0.0696,0.157 0.0618,0.16 0.0539,0.163 0.0458,0.166 0.0376,0.167 0.0294,0.169 0.021,0.171 0.0127,0.171 z m -0.74,-31.78 -0.0042,0.1717 -0.0127,0.1714 -0.021,0.1705 -0.0294,0.1692 -0.0376,0.1676 -0.0458,0.1656 -0.0539,0.1631 -0.0618,0.1603 -0.0696,0.157 -0.0773,0.1535 -0.0846,0.1495 -0.092,0.1451 -0.0989,0.1404 -0.1057,0.1355 -0.1122,0.1301 -0.1184,0.1244 -0.1244,0.1184 -0.1301,0.1122 -0.1355,0.1057 -0.1404,0.0989 -0.1451,0.0919 -0.1495,0.0847 -0.1535,0.0773 -0.157,0.0696 -0.1603,0.0618 -0.1631,0.0539 -0.1656,0.0458 -0.1676,0.0376 -0.1692,0.0294 -0.1705,0.021 -0.1714,0.0127 -0.1717,0.0042 -0.1717,-0.0042 -0.1714,-0.0127 -0.1705,-0.021 -0.1692,-0.0294 -0.1676,-0.0376 -0.1656,-0.0458 -0.1631,-0.0539 -0.1603,-0.0618 -0.157,-0.0696 -0.1535,-0.0773 -0.1495,-0.0847 -0.1451,-0.0919 -0.1404,-0.0989 -0.1355,-0.1057 -0.1301,-0.1122 -0.1244,-0.1184 -0.1184,-0.1244 -0.1122,-0.1301 -0.1057,-0.1355 -0.0989,-0.1404 -0.0919,-0.1451 -0.0847,-0.1495 -0.0773,-0.1535 -0.0696,-0.157 -0.0618,-0.1603 -0.0539,-0.1631 -0.0458,-0.1656 -0.0376,-0.1676 -0.0294,-0.1692 -0.021,-0.1705 -0.0127,-0.1714 -0.0042,-0.1717 0.0042,-0.1717 0.0127,-0.1714 0.021,-0.1705 0.0294,-0.1692 0.0376,-0.1676 0.0458,-0.1656 0.0539,-0.1631 0.0618,-0.1603 0.0696,-0.157 0.0773,-0.1535 0.0847,-0.1495 0.0919,-0.1451 0.0989,-0.1404 0.1057,-0.1355 0.1122,-0.1301 0.1184,-0.1244 0.1244,-0.1184 0.1301,-0.1122 0.1355,-0.1057 0.1404,-0.0989 0.1451,-0.092 0.1495,-0.0846 0.1535,-0.0773 0.157,-0.0696 0.1603,-0.0618 0.1631,-0.0539 0.1656,-0.0458 0.1676,-0.0376 0.1692,-0.0294 0.1705,-0.021 0.1714,-0.0127 0.1717,-0.0042 0.1717,0.0042 0.1714,0.0127 0.1705,0.021 0.1692,0.0294 0.1676,0.0376 0.1656,0.0458 0.1631,0.0539 0.1603,0.0618 0.157,0.0696 0.1535,0.0773 0.1495,0.0846 0.1451,0.092 0.1404,0.0989 0.1355,0.1057 0.1301,0.1122 0.1244,0.1184 0.1184,0.1244 0.1122,0.1301 0.1057,0.1355 0.0989,0.1404 0.092,0.1451 0.0846,0.1495 0.0773,0.1535 0.0696,0.157 0.0618,0.1603 0.0539,0.1631 0.0458,0.1656 0.0376,0.1676 0.0294,0.1692 0.021,0.1705 0.0127,0.1714 z m -2.26,17.71 -0.0042,0.1717 -0.0127,0.1714 -0.021,0.1705 -0.0294,0.1692 -0.0376,0.1676 -0.0458,0.1656 -0.0539,0.1631 -0.0618,0.1603 -0.0696,0.157 -0.0773,0.1535 -0.0846,0.1495 -0.092,0.1451 -0.0989,0.1404 -0.1057,0.1355 -0.1122,0.1301 -0.1184,0.1244 -0.1244,0.1184 -0.1301,0.1122 -0.1355,0.1057 -0.1404,0.0989 -0.1451,0.0919 -0.1495,0.0847 -0.1535,0.0773 -0.157,0.0696 -0.1603,0.0618 -0.1631,0.0539 -0.1656,0.0458 -0.1676,0.0376 -0.1692,0.0294 -0.1705,0.021 -0.1714,0.0127 -0.1717,0.0042 -0.1717,-0.0042 -0.1714,-0.0127 -0.1705,-0.021 -0.1692,-0.0294 -0.1676,-0.0376 -0.1656,-0.0458 -0.1631,-0.0539 -0.1603,-0.0618 -0.157,-0.0696 -0.1535,-0.0773 -0.1495,-0.0847 -0.1451,-0.0919 -0.1404,-0.0989 -0.1355,-0.1057 -0.1301,-0.1122 -0.1244,-0.1184 -0.1184,-0.1244 -0.1122,-0.1301 -0.1057,-0.1355 -0.0989,-0.1404 -0.0919,-0.1451 -0.0847,-0.1495 -0.0773,-0.1535 -0.0696,-0.157 -0.0618,-0.1603 -0.0539,-0.1631 -0.0458,-0.1656 -0.0376,-0.1676 -0.0294,-0.1692 -0.021,-0.1705 -0.0127,-0.1714 -0.0042,-0.1717 0.0042,-0.1717 0.0127,-0.1714 0.021,-0.1705 0.0294,-0.1692 0.0376,-0.1676 0.0458,-0.1656 0.0539,-0.1631 0.0618,-0.1603 0.0696,-0.157 0.0773,-0.1535 0.0847,-0.1495 0.0919,-0.1451 0.0989,-0.1404 0.1057,-0.1355 0.1122,-0.1301 0.1184,-0.1244 0.1244,-0.1184 0.1301,-0.1122 0.1355,-0.1057 0.1404,-0.0989 0.1451,-0.092 0.1495,-0.0846 0.1535,-0.0773 0.157,-0.0696 0.1603,-0.0618 0.1631,-0.0539 0.1656,-0.0458 0.1676,-0.0376 0.1692,-0.0294 0.1705,-0.021 0.1714,-0.0127 0.1717,-0.0042 0.1717,0.0042 0.1714,0.0127 0.1705,0.021 0.1692,0.0294 0.1676,0.0376 0.1656,0.0458 0.1631,0.0539 0.1603,0.0618 0.157,0.0696 0.1535,0.0773 0.1495,0.0846 0.1451,0.092 0.1404,0.0989 0.1355,0.1057 0.1301,0.1122 0.1244,0.1184 0.1184,0.1244 0.1122,0.1301 0.1057,0.1355 0.0989,0.1404 0.092,0.1451 0.0846,0.1495 0.0773,0.1535 0.0696,0.157 0.0618,0.1603 0.0539,0.1631 0.0458,0.1656 0.0376,0.1676 0.0294,0.1692 0.021,0.1705 0.0127,0.1714 z m -2.54,-88.5075 -0.0783,0.49443 -0.2273,0.44603 -0.3539,0.35397 -0.4461,0.22726 -0.4944,0.0783 h -3.912 l -0.4944,-0.0783 -0.4461,-0.22726 -0.3539,-0.35397 -0.2273,-0.44603 -0.0783,-0.49443 0.0783,-0.49443 0.2273,-0.44603 0.3539,-0.35397 0.4461,-0.22726 0.4944,-0.0783 h 3.912 l 0.4944,0.0783 0.4461,0.22726 0.3539,0.35397 0.2273,0.44603 z m 0,121.6755 -0.0783,0.494 -0.2273,0.446 -0.3539,0.354 -0.4461,0.227 -0.4944,0.078 h -3.912 l -0.4944,-0.078 -0.4461,-0.227 -0.3539,-0.354 -0.2273,-0.446 -0.0783,-0.494 0.0783,-0.495 0.2273,-0.446 0.3539,-0.354 0.4461,-0.227 0.4944,-0.078 h 3.912 l 0.4944,0.078 0.4461,0.227 0.3539,0.354 0.2273,0.446 z m -6.58,-106.158 -0.0049,0.2012 -0.0148,0.2007 -0.0247,0.1997 -0.0344,0.1983 -0.0441,0.1963 -0.0536,0.194 -0.0632,0.191 -0.0724,0.1878 -0.0815,0.184 -0.0905,0.1797 -0.0992,0.1751 -0.1077,0.17 -0.1158,0.1646 -0.1239,0.1586 -0.1314,0.1524 -0.1388,0.1457 -0.1457,0.1388 -0.1524,0.1314 -0.1586,0.1239 -0.1646,0.1158 -0.17,0.1077 -0.1751,0.0992 -0.1797,0.0905 -0.184,0.0815 -0.1878,0.0724 -0.191,0.0632 -0.194,0.0536 -0.1963,0.0441 -0.1983,0.0344 -0.1997,0.0247 -0.2007,0.0148 -0.2012,0.005 -0.2012,-0.005 -0.2007,-0.0148 -0.1997,-0.0247 -0.1983,-0.0344 -0.1963,-0.0441 -0.194,-0.0536 -0.191,-0.0632 -0.1878,-0.0724 -0.184,-0.0815 -0.1797,-0.0905 -0.1751,-0.0992 -0.17,-0.1077 -0.1646,-0.1158 -0.1586,-0.1239 -0.1524,-0.1314 -0.1457,-0.1388 -0.1388,-0.1457 -0.1314,-0.1524 -0.1239,-0.1586 -0.1158,-0.1646 -0.1077,-0.17 -0.0992,-0.1751 -0.0905,-0.1797 -0.0815,-0.184 -0.0724,-0.1878 -0.0632,-0.191 -0.0536,-0.194 -0.0441,-0.1963 -0.0344,-0.1983 -0.0247,-0.1997 -0.0148,-0.2007 -0.0049,-0.2012 0.0049,-0.2012 0.0148,-0.2007 0.0247,-0.1997 0.0344,-0.1983 0.0441,-0.1963 0.0536,-0.194 0.0632,-0.191 0.0724,-0.1878 0.0815,-0.184 0.0905,-0.1797 0.0992,-0.1751 0.1077,-0.17 0.1158,-0.1646 0.1239,-0.1586 0.1314,-0.1524 0.1388,-0.1457 0.1457,-0.1388 0.1524,-0.1314 0.1586,-0.1239 0.1646,-0.1158 0.17,-0.1077 0.1751,-0.0992 0.1797,-0.0905 0.184,-0.0815 0.1878,-0.0724 0.191,-0.0632 0.194,-0.0536 0.1963,-0.0441 0.1983,-0.0344 0.1997,-0.0247 0.2007,-0.0148 0.2012,-0.005 0.2012,0.005 0.2007,0.0148 0.1997,0.0247 0.1983,0.0344 0.1963,0.0441 0.194,0.0536 0.191,0.0632 0.1878,0.0724 0.184,0.0815 0.1797,0.0905 0.1751,0.0992 0.17,0.1077 0.1646,0.1158 0.1586,0.1239 0.1524,0.1314 0.1457,0.1388 0.1388,0.1457 0.1314,0.1524 0.1239,0.1586 0.1158,0.1646 0.1077,0.17 0.0992,0.1751 0.0905,0.1797 0.0815,0.184 0.0724,0.1878 0.0632,0.191 0.0536,0.194 0.0441,0.1963 0.0344,0.1983 0.0247,0.1997 0.0148,0.2007 z m -2.24,56.46 -0.0042,0.1717 -0.0127,0.1714 -0.021,0.1705 -0.0294,0.1692 -0.0376,0.1676 -0.0458,0.1656 -0.0539,0.1631 -0.0618,0.1603 -0.0696,0.157 -0.0773,0.1535 -0.0846,0.1495 -0.092,0.1451 -0.0989,0.1404 -0.1057,0.1355 -0.1122,0.1301 -0.1184,0.1244 -0.1244,0.1184 -0.1301,0.1122 -0.1355,0.1057 -0.1404,0.0989 -0.1451,0.0919 -0.1495,0.0847 -0.1535,0.0773 -0.157,0.0696 -0.1603,0.0618 -0.1631,0.0539 -0.1656,0.0458 -0.1676,0.0376 -0.1692,0.0294 -0.1705,0.021 -0.1714,0.0127 L 9.6,-49.61 9.4283,-49.6142 9.2569,-49.6269 9.0864,-49.6479 8.9172,-49.6773 8.7496,-49.7149 8.584,-49.7607 8.4209,-49.8146 8.2606,-49.8764 8.1036,-49.946 7.9501,-50.0233 7.8006,-50.108 7.6555,-50.1999 7.5151,-50.2988 7.3796,-50.4045 7.2495,-50.5167 7.1251,-50.6351 7.0067,-50.7595 6.8945,-50.8896 6.7888,-51.0251 6.6899,-51.1655 6.5979,-51.3106 6.5133,-51.4601 6.436,-51.6136 6.3664,-51.7706 6.3046,-51.9309 6.2507,-52.094 6.2049,-52.2596 6.1673,-52.4272 6.1379,-52.5964 6.1169,-52.7669 6.1042,-52.9383 6.1,-53.11 l 0.0042,-0.1717 0.0127,-0.1714 0.021,-0.1705 0.0294,-0.1692 0.0376,-0.1676 0.0458,-0.1656 0.0539,-0.1631 0.0618,-0.1603 0.0696,-0.157 0.0773,-0.1535 0.0846,-0.1495 0.092,-0.1451 0.0989,-0.1404 0.1057,-0.1355 0.1122,-0.1301 0.1184,-0.1244 0.1244,-0.1184 0.1301,-0.1122 0.1355,-0.1057 0.1404,-0.0989 0.1451,-0.092 0.1495,-0.0846 0.1535,-0.0773 0.157,-0.0696 0.1603,-0.0618 0.1631,-0.0539 0.1656,-0.0458 0.1676,-0.0376 0.1692,-0.0294 0.1705,-0.021 0.1714,-0.0127 0.1717,-0.0042 0.1717,0.0042 0.1714,0.0127 0.1705,0.021 0.1692,0.0294 0.1676,0.0376 0.1656,0.0458 0.1631,0.0539 0.1603,0.0618 0.157,0.0696 0.1535,0.0773 0.1495,0.0846 0.1451,0.092 0.1404,0.0989 0.1355,0.1057 0.1301,0.1122 0.1244,0.1184 0.1184,0.1244 0.1122,0.1301 0.1057,0.1355 0.0989,0.1404 0.092,0.1451 0.0846,0.1495 0.0773,0.1535 0.0696,0.157 0.0618,0.1603 0.0539,0.1631 0.0458,0.1656 0.0376,0.1676 0.0294,0.1692 0.021,0.1705 0.0127,0.1714 z m -0.64,18.32 -0.0042,0.1717 -0.0127,0.1714 -0.021,0.1705 -0.0294,0.1692 -0.0376,0.1676 -0.0458,0.1656 -0.0539,0.1631 -0.0618,0.1603 -0.0696,0.157 -0.0773,0.1535 -0.0846,0.1495 -0.092,0.1451 -0.0989,0.1404 -0.1057,0.1355 -0.1122,0.1301 -0.1184,0.1244 -0.1244,0.1184 -0.1301,0.1122 -0.1355,0.1057 -0.1404,0.0989 -0.1451,0.0919 -0.1495,0.0847 -0.1535,0.0773 -0.157,0.0696 -0.1603,0.0618 -0.1631,0.0539 -0.1656,0.0458 -0.1676,0.0376 -0.1692,0.0294 -0.1705,0.021 -0.1714,0.0127 L 8.96,-31.29 8.7883,-31.2942 8.6169,-31.3069 8.4464,-31.3279 8.2772,-31.3573 8.1096,-31.3949 7.944,-31.4407 7.7809,-31.4946 7.6206,-31.5564 7.4636,-31.626 7.3101,-31.7033 7.1606,-31.788 7.0155,-31.8799 6.8751,-31.9788 6.7396,-32.0845 6.6095,-32.1967 6.4851,-32.3151 6.3667,-32.4395 6.2545,-32.5696 6.1488,-32.7051 6.0499,-32.8455 5.958,-32.9906 5.8733,-33.1401 5.796,-33.2936 5.7264,-33.4506 5.6646,-33.6109 5.6107,-33.774 5.5649,-33.9396 5.5273,-34.1072 5.4979,-34.2764 5.4769,-34.4469 5.4642,-34.6183 5.46,-34.79 l 0.0042,-0.1717 0.0127,-0.1714 0.021,-0.1705 0.0294,-0.1692 0.0376,-0.1676 0.0458,-0.1656 0.0539,-0.1631 0.0618,-0.1603 0.0696,-0.157 0.0773,-0.1535 0.0847,-0.1495 0.0919,-0.1451 0.0989,-0.1404 0.1057,-0.1355 0.1122,-0.1301 0.1184,-0.1244 0.1244,-0.1184 0.1301,-0.1122 0.1355,-0.1057 0.1404,-0.0989 0.1451,-0.092 0.1495,-0.0846 0.1535,-0.0773 0.157,-0.0696 0.1603,-0.0618 0.1631,-0.0539 0.1656,-0.0458 0.1676,-0.0376 0.1692,-0.0294 0.1705,-0.021 0.1714,-0.0127 0.1717,-0.0042 0.1717,0.0042 0.1714,0.0127 0.1705,0.021 0.1692,0.0294 0.1676,0.0376 0.1656,0.0458 0.1631,0.0539 0.1603,0.0618 0.157,0.0696 0.1535,0.0773 0.1495,0.0846 0.1451,0.092 0.1404,0.0989 0.1355,0.1057 0.1301,0.1122 0.1244,0.1184 0.1184,0.1244 0.1122,0.1301 0.1057,0.1355 0.0989,0.1404 0.092,0.1451 0.0846,0.1495 0.0773,0.1535 0.0696,0.157 0.0618,0.1603 0.0539,0.1631 0.0458,0.1656 0.0376,0.1676 0.0294,0.1692 0.021,0.1705 0.0127,0.1714 z m -0.07,17.16 -0.0042,0.172 -0.0127,0.171 -0.021,0.171 -0.0294,0.169 -0.0376,0.167 -0.0458,0.166 -0.0539,0.163 -0.0618,0.16 -0.0696,0.157 -0.0773,0.154 -0.0846,0.149 -0.092,0.145 -0.0989,0.141 -0.1057,0.135 -0.1122,0.13 -0.1184,0.125 -0.1244,0.118 -0.1301,0.113 -0.1355,0.105 -0.1404,0.099 -0.1451,0.092 -0.1495,0.085 -0.1535,0.077 -0.157,0.07 -0.1603,0.061 -0.1631,0.054 -0.1656,0.046 -0.1676,0.038 -0.1692,0.029 -0.1705,0.021 -0.1714,0.013 L 8.89,-14.13 8.7183,-14.134 8.5469,-14.147 8.3764,-14.168 8.2072,-14.197 8.0396,-14.235 7.874,-14.281 7.7109,-14.335 7.5506,-14.396 7.3936,-14.466 7.2401,-14.543 7.0906,-14.628 6.9455,-14.72 6.8051,-14.819 6.6696,-14.924 6.5395,-15.037 6.4151,-15.155 6.2967,-15.28 6.1845,-15.41 6.0788,-15.545 5.9799,-15.686 5.8879,-15.831 5.8033,-15.98 5.726,-16.134 5.6564,-16.291 5.5946,-16.451 5.5407,-16.614 5.4949,-16.78 5.4573,-16.947 5.4279,-17.116 5.4069,-17.287 5.3942,-17.458 5.39,-17.63 l 0.0042,-0.172 0.0127,-0.171 0.021,-0.171 0.0294,-0.169 0.0376,-0.167 0.0458,-0.166 0.0539,-0.163 0.0618,-0.16 0.0696,-0.157 0.0773,-0.154 0.0846,-0.149 0.092,-0.145 0.0989,-0.141 0.1057,-0.135 0.1122,-0.13 0.1184,-0.125 0.1244,-0.118 0.1301,-0.113 0.1355,-0.105 0.1404,-0.099 0.1451,-0.092 0.1495,-0.085 0.1535,-0.077 0.157,-0.07 0.1603,-0.061 0.1631,-0.054 0.1656,-0.046 0.1676,-0.038 0.1692,-0.029 0.1705,-0.021 0.1714,-0.013 0.1717,-0.004 0.1717,0.004 0.1714,0.013 0.1705,0.021 0.1692,0.029 0.1676,0.038 0.1656,0.046 0.1631,0.054 0.1603,0.061 0.157,0.07 0.1535,0.077 0.1495,0.085 0.1451,0.092 0.1404,0.099 0.1355,0.105 0.1301,0.113 0.1244,0.118 0.1184,0.125 0.1122,0.13 0.1057,0.135 0.0989,0.141 0.092,0.145 0.0846,0.149 0.0773,0.154 0.0696,0.157 0.0618,0.16 0.0539,0.163 0.0458,0.166 0.0376,0.167 0.0294,0.169 0.021,0.171 0.0127,0.171 z m -1.798,-107.4575 -0.0783,0.49443 -0.2273,0.44603 -0.3539,0.35397 -0.4461,0.22726 -0.4944,0.0783 H 5.08 l -0.4944,-0.0783 -0.4461,-0.22726 -0.3539,-0.35397 -0.2273,-0.44603 -0.0783,-0.49443 0.0783,-0.49443 0.2273,-0.44603 0.3539,-0.35397 0.4461,-0.22726 0.4944,-0.0783 h 3.912 l 0.4944,0.0783 0.4461,0.22726 0.3539,0.35397 0.2273,0.44603 z m 0,121.6755 -0.0783,0.494 -0.2273,0.446 -0.3539,0.354 -0.4461,0.227 -0.4944,0.078 H 5.08 L 4.5856,-1.891 4.1395,-2.118 3.7856,-2.472 3.5583,-2.918 3.48,-3.412 3.5583,-3.907 3.7856,-4.353 4.1395,-4.707 4.5856,-4.934 5.08,-5.012 h 3.912 l 0.4944,0.078 0.4461,0.227 0.3539,0.354 0.2273,0.446 z"
     stroke="#000000"
     fill="#d3d3d3"
     stroke-width="0.5"
     id="path1" />
  <path
     style="fill:#241e46;fill-opacity:1;stroke:#241e46;stroke-width:0.619779"
     d="M 60.686695,-64.273304 V -0.59322033 H 30.623135 0.55957599 V -64.273304 -127.95339 H 30.623135 60.686695 Z M 52.81341,-126.69289 c -0.600129,0.43882 -0.903646,1.22862 -0.787737,2.04979 0.172149,1.2196 0.466197,1.35029 3.377692,1.5012 4.299826,0.22288 6.007061,-1.27662 3.877761,-3.40592 -1.053343,-1.05334 -5.101407,-1.14414 -6.467716,-0.14507 z m -17.505044,0.14507 c -2.129301,2.1293 -0.422065,3.6288 3.877761,3.40592 2.911495,-0.15091 3.205543,-0.2816 3.377691,-1.5012 0.11591,-0.82117 -0.187607,-1.61097 -0.787736,-2.04979 -1.366309,-0.99907 -5.414373,-0.90827 -6.467716,0.14507 z m -20.026249,-0.29312 c -1.191591,0.63772 -1.386269,2.1662 -0.401354,3.15111 0.360764,0.36076 1.910402,0.65593 3.443644,0.65593 1.533242,0 3.082883,-0.29517 3.443645,-0.65593 0.951418,-0.95142 0.80414,-2.48308 -0.300636,-3.12655 -1.251047,-0.72867 -4.843004,-0.74293 -6.185299,-0.0246 z m -11.6771393,0.29312 c -1.0406856,1.04069 -1.0619263,1.38757 -0.1604354,2.62043 0.5576121,0.76259 1.3570347,0.92149 3.9629239,0.78774 2.9335488,-0.15057 3.2825028,-0.29525 3.4430118,-1.42751 0.09824,-0.69298 -0.116363,-1.61539 -0.476887,-2.04979 -0.9106642,-1.09728 -5.6506111,-1.04887 -6.7686133,0.0691 z m 42.8278063,13.85747 c -1.780636,1.78063 -1.984172,3.17541 -0.798085,5.46905 2.088828,4.03935 8.519532,2.3252 8.47529,-2.25915 -0.04192,-4.34347 -4.626696,-6.26041 -7.677205,-3.2099 z m -19.131355,0 c -1.780636,1.78063 -1.984172,3.17541 -0.798084,5.46905 2.088827,4.03935 8.519531,2.3252 8.475288,-2.25915 -0.04192,-4.34347 -4.626696,-6.26041 -7.677204,-3.2099 z m -19.1987622,0.0674 c -1.4396561,1.43966 -1.6212952,1.93938 -1.3411041,3.68962 0.3990975,2.49299 2.0655333,3.93757 4.5423133,3.93757 2.268374,0 4.560785,-2.03518 4.560785,-4.04901 0,-4.72324 -4.529082,-6.81109 -7.7619942,-3.57818 z m 15.7342992,17.326814 c -3.367066,1.20224 -7.337221,4.721836 -8.934923,7.920921 -4.533569,9.077595 -1.280366,19.274798 7.673792,24.053615 1.928151,1.029046 3.162321,1.231966 7.500692,1.233228 6.096525,0.0019 9.078537,-1.140225 12.630849,-4.837118 3.21594,-3.346839 4.536825,-6.476603 4.763299,-11.286373 0.349273,-7.417724 -2.922234,-13.17748 -9.29292,-16.36095 -2.858578,-1.428445 -3.971665,-1.677585 -7.505273,-1.679892 -2.577243,-0.0016 -5.166648,0.360688 -6.835516,0.956569 z m 9.929178,38.485934 c -2.260624,2.671596 -0.07523,6.724444 3.439112,6.377898 1.155339,-0.113927 2.158072,-0.68145 2.85068,-1.613419 3.028714,-4.075411 -3.005266,-8.64612 -6.289792,-4.764479 z m -13.665253,0 c -1.270296,1.501227 -1.208177,3.275105 0.176324,5.035217 2.973469,3.780152 8.770151,-0.367372 6.483916,-4.639241 -1.233686,-2.305164 -4.8622,-2.520895 -6.66024,-0.395976 z m 27.22485,1.130983 c -2.023294,2.888652 -0.254207,6.437693 3.208993,6.437693 2.004545,0 4.139249,-1.973294 4.139249,-3.826269 0,-0.520184 -0.509802,-1.5939 -1.132893,-2.386031 -1.511166,-1.921137 -4.9405,-2.045496 -6.215349,-0.225393 z M 6.8854591,-56.035928 c -2.4991456,2.499141 -1.0120603,6.381695 2.5615371,6.68781 3.5879568,0.307339 5.6525718,-3.938162 3.1380028,-6.452728 -1.32561,-1.325612 -4.4789482,-1.455674 -5.6995399,-0.235082 z m 30.2969989,16.633386 c -1.336647,1.336646 -1.433243,4.184385 -0.188587,5.559713 1.143691,1.263766 4.397399,1.317525 5.7483,0.09498 1.474536,-1.334434 1.347969,-4.802087 -0.215235,-5.896999 -1.674086,-1.172575 -4.03671,-1.065456 -5.344478,0.242311 z m -19.131355,0 c -1.307769,1.307769 -1.414886,3.670392 -0.24231,5.344477 0.620678,0.886145 1.397134,1.21258 2.869702,1.206474 2.326037,-0.0096 2.978446,-0.349478 3.8501,-2.005481 0.891194,-1.69313 0.787522,-2.55597 -0.504454,-4.198451 -1.41954,-1.804651 -4.345419,-1.974638 -5.973038,-0.347019 z m 31.125639,1.67097 c -0.807764,0.807763 -1.077114,1.67748 -0.956568,3.088707 0.442926,5.185341 7.547029,5.041757 7.547029,-0.152535 0,-3.605454 -4.096232,-5.430401 -6.590461,-2.936172 z m -42.9026026,0.217319 c -0.737923,0.737925 -1.3416809,1.978977 -1.3416809,2.757897 0,1.786594 2.2647989,4.099576 4.0141736,4.099576 1.8479929,0 3.5719039,-1.585984 3.9711069,-3.653385 0.27105,-1.403723 0.06477,-2.011511 -1.066728,-3.143007 -1.770486,-1.770485 -3.8447504,-1.793203 -5.5768716,-0.06108 z m 28.7218776,12.323575 c -2.514568,2.514568 -0.449952,6.76007 3.138003,6.452727 3.573602,-0.306113 5.060682,-4.188666 2.56154,-6.687809 -1.220592,-1.220593 -4.373931,-1.090529 -5.699543,0.235082 z m -13.944944,0.0071 c -2.281782,2.521344 -0.544377,6.552268 2.824155,6.552268 3.418192,0 5.17267,-3.569843 3.163948,-6.437698 -1.135896,-1.621714 -4.564782,-1.687321 -5.988103,-0.11457 z m 28.063197,4.723851 c -1.35243,1.223931 -1.302187,4.25889 0.09361,5.654688 1.307768,1.307769 3.670391,1.414886 5.344477,0.242311 1.489336,-1.043172 1.663803,-4.306322 0.310211,-5.802024 -1.143691,-1.263766 -4.397399,-1.317525 -5.7483,-0.09497 z m -43.3309036,0.310211 c -2.008722,2.867854 -0.2542461,6.437698 3.1639509,6.437698 3.3251697,0 5.1163137,-3.587188 3.0822977,-6.173022 -1.541608,-1.959837 -4.9575267,-2.104581 -6.2462486,-0.264676 z M 52.035625,-3.9794474 c -0.09824,0.6929779 0.116362,1.6153823 0.476887,2.0497882 0.910664,1.09728293 5.650611,1.04887225 6.768614,-0.06913 1.018566,-1.0185667 1.02625,-1.0867654 0.279612,-2.4818702 -0.498008,-0.9305366 -1.054389,-1.0597906 -3.962923,-0.9206328 -3.060105,0.1464091 -3.400653,0.2823385 -3.56219,1.4218448 z M 35.105339,-4.8567795 c -0.89084,0.8908415 -0.824062,1.8309021 0.203027,2.8579902 1.030674,1.03067421 5.714352,1.17293546 6.684261,0.2030266 0.859947,-0.8599465 0.842481,-3.0039634 -0.02733,-3.3549398 -1.36917,-0.5524722 -6.221464,-0.34457 -6.859958,0.293923 z M 14.557511,-4.282839 c -1.069518,1.7039944 0.233531,2.8483292 3.457609,3.0364604 3.004592,0.1753241 4.408863,-0.473641 4.408863,-2.0375001 0,-1.6763283 -1.234953,-2.2821648 -4.31229,-2.1155006 -2.096447,0.1135404 -3.128053,0.4376174 -3.554182,1.1165403 z M 3.3118565,-4.4554264 c -0.7317952,1.3673772 -0.7230772,1.4404398 0.2931212,2.4566371 1.0306712,1.03067421 5.7143517,1.17293546 6.6842613,0.2030266 0.707043,-0.7070448 0.885441,-2.7586245 0.291523,-3.3525424 -0.200422,-0.2004237 -1.7906019,-0.3644066 -3.5337324,-0.3644066 -2.573991,0 -3.275621,0.1986041 -3.7351731,1.0572853 z"
     id="path2" />
  <g
     id="g2"
     transform="matrix(0.04027573,0,0,0.04027573,-9.0925301,-105.85114)"
     style="fill:#f4a7b0;fill-opacity:1;stroke:#f4a7b0;stroke-opacity:1">
	<path
   class="st0"
   d="M 552.18,365.26 H 403.02 c -4.74,0 -7.93,-3.86 -7.12,-8.59 l 4.32,-18.49 c 1.11,-4.8 -3.89,-8.64 -8.64,-8.64 v 0 h -83.84 v -28.06 h 92.73 c 4.75,0 7.95,3.88 7.12,8.63 l -4.31,18.45 c -1.12,4.81 3.89,8.64 8.64,8.64 h 92.97 15.25 c 31.66,0 57.43,-25.76 57.43,-57.42 0,-31.66 -25.76,-57.43 -57.43,-57.43 h -86.61 c -4.73,0 -7.93,-3.86 -7.12,-8.59 l 4.32,-18.49 c 1.11,-4.8 -3.89,-8.64 -8.64,-8.64 H 272.98 c -4.75,0 -8.64,3.89 -8.64,8.64 v 26.11 c 0,4.75 3.89,8.64 8.64,8.64 H 415.7 c 4.75,0 7.95,3.88 7.12,8.63 l -4.31,18.45 c -1.12,4.8 3.89,8.64 8.64,8.64 h 92.97 c 7.73,0 14.03,6.29 14.03,14.03 0,7.73 -6.29,14.03 -14.03,14.03 h -15.25 -86.61 c -4.73,0 -7.93,-3.86 -7.12,-8.59 l 4.32,-18.49 c 1.11,-4.8 -3.89,-8.64 -8.64,-8.64 H 272.98 c -4.75,0 -8.64,3.89 -8.64,8.64 v 22.16 3.96 45.34 13.49 12.63 c 0,4.75 3.89,8.64 8.64,8.64 h 30.5 81.73 c 4.74,0 7.94,3.87 7.12,8.61 l -4.32,18.47 c 0,0 0,0.01 0,0.01 -1.1,4.78 3.85,8.58 8.57,8.62 0.03,0 0.05,0.01 0.07,0.01 h 155.53 c 4.75,0 8.64,-3.89 8.64,-8.64 V 373.9 c 0.01,-4.76 -3.88,-8.64 -8.64,-8.64"
   id="path1-7"
   style="fill:#f4a7b0;fill-opacity:1;stroke:#f4a7b0;stroke-opacity:1" />

</g>
  <g
     id="g13"
     transform="matrix(0.04029054,0,0,0.04029054,14.073895,-130.95144)">
	<polygon
   class="st0"
   points="343.96,264.58 371.2,264.58 371.2,270.52 353.26,270.52 353.26,272.87 369.52,272.87 369.52,278.39 353.26,278.39 353.26,280.81 371.2,280.81 371.2,286.75 343.96,286.75 "
   id="polygon1"
   style="fill:#ffffff" />

	<polygon
   class="st0"
   points="407.14,270.72 407.08,270.72 401.56,286.59 390.35,286.59 384.83,270.72 384.77,270.72 384.77,286.75 375.57,286.75 375.57,264.58 390.65,264.58 395.94,280.31 395.97,280.31 401.26,264.58 416.34,264.58 416.34,286.75 407.14,286.75 "
   id="polygon2"
   style="fill:#ffffff" />

	<path
   class="st0"
   d="m 425.47,284.27 c -2.74,-1.72 -4.11,-4.63 -4.11,-8.72 v -10.97 h 9.3 v 10.22 c 0,2.17 0.53,3.73 1.59,4.68 1.06,0.95 2.86,1.43 5.4,1.43 2.54,0 4.34,-0.47 5.41,-1.41 1.06,-0.94 1.59,-2.51 1.59,-4.7 v -10.22 h 9.3 v 10.97 c 0,4.1 -1.37,7 -4.1,8.72 -2.73,1.72 -6.8,2.58 -12.19,2.58 -5.38,0 -9.45,-0.86 -12.19,-2.58"
   id="path2-6"
   style="fill:#ffffff" />

	<polygon
   class="st0"
   points="469.14,270.52 458.3,270.52 458.3,264.58 489.25,264.58 489.25,270.52 478.44,270.52 478.44,286.75 469.14,286.75 "
   id="polygon3"
   style="fill:#ffffff" />

	<polygon
   class="st0"
   points="492.99,264.58 520.23,264.58 520.23,270.52 502.29,270.52 502.29,272.87 518.56,272.87 518.56,278.39 502.29,278.39 502.29,280.81 520.23,280.81 520.23,286.75 492.99,286.75 "
   id="polygon4"
   style="fill:#ffffff" />

	<polygon
   class="st0"
   points="344.29,294.34 353.59,294.34 353.59,310.57 368.17,310.57 368.17,316.51 344.29,316.51 "
   id="polygon5"
   style="fill:#ffffff" />

	<path
   class="st0"
   d="m 393.18,306.56 -3.78,-7.66 h -0.03 l -3.78,7.66 z m -9.87,-12.26 h 12.12 l 11.96,22.21 h -9.69 l -2.14,-4.34 h -12.38 l -2.17,4.34 h -9.69 z"
   id="path5"
   style="fill:#ffffff" />

	<path
   class="st0"
   d="m 429.83,310.57 c 1.16,0 1.88,-0.11 2.15,-0.35 0.27,-0.23 0.41,-0.59 0.41,-1.1 0,-0.51 -0.14,-0.86 -0.41,-1.06 -0.27,-0.2 -0.99,-0.3 -2.15,-0.3 h -9.92 v 2.81 z m -0.99,-7.64 c 0.94,0 1.55,-0.12 1.84,-0.37 0.29,-0.25 0.43,-0.59 0.43,-1.03 0,-0.42 -0.15,-0.73 -0.44,-0.94 -0.3,-0.21 -0.89,-0.31 -1.79,-0.31 h -8.97 v 2.65 z m -18.23,-8.59 h 19.52 c 4.03,0 6.77,0.46 8.23,1.39 1.46,0.93 2.18,2.3 2.18,4.09 0,1.71 -0.56,3.01 -1.68,3.91 -1.12,0.9 -2.37,1.38 -3.75,1.45 1.36,0.06 2.79,0.48 4.3,1.25 1.51,0.77 2.27,2.1 2.27,4.01 0,1.95 -0.7,3.45 -2.09,4.5 -1.39,1.05 -4.07,1.58 -8.03,1.58 H 410.6 v -22.18 z"
   id="path6"
   style="fill:#ffffff" />

	<rect
   x="345.48001"
   y="324.09"
   class="st1"
   width="5.3899999"
   height="22.18"
   id="rect6"
   style="fill:#f4a7b0" />

	<polygon
   class="st1"
   points="380.18,324.09 380.17,342.13 380.15,342.13 365.58,324.09 356.85,324.09 356.85,346.27 362.29,346.27 362.29,327.91 362.33,327.91 377.06,346.27 385.59,346.27 385.59,324.09 "
   id="polygon6"
   style="fill:#f4a7b0" />

	<path
   class="st1"
   d="m 393.32,344.45 c -2.25,-1.29 -3.37,-3.35 -3.37,-6.18 h 5.42 c 0,1.7 0.72,2.88 2.15,3.56 1.43,0.67 3.33,1.01 5.7,1.01 2.34,0 4.24,-0.24 5.68,-0.71 1.44,-0.48 2.16,-1.18 2.16,-2.1 0,-1.01 -0.91,-1.69 -2.73,-2.05 -1.83,-0.36 -4.18,-0.76 -7.06,-1.18 -3.9,-0.54 -6.76,-1.23 -8.58,-2.08 -1.82,-0.85 -2.73,-2.25 -2.73,-4.2 0,-2.2 1.15,-3.86 3.45,-4.98 2.3,-1.12 5.54,-1.67 9.73,-1.67 4.25,0 7.51,0.65 9.79,1.94 2.28,1.3 3.42,3.31 3.42,6.04 h -5.45 c 0,-1.68 -0.73,-2.84 -2.2,-3.48 -1.47,-0.64 -3.34,-0.96 -5.62,-0.96 -2.39,0 -4.31,0.24 -5.76,0.73 -1.45,0.49 -2.17,1.17 -2.17,2.04 0,0.95 0.92,1.63 2.77,2.03 1.85,0.4 4.16,0.81 6.92,1.23 4.12,0.57 7.07,1.24 8.85,2.03 1.78,0.78 2.67,2.14 2.67,4.07 0,2.28 -1.12,3.99 -3.37,5.13 -2.24,1.14 -5.48,1.72 -9.71,1.72 -4.39,0 -7.71,-0.65 -9.96,-1.94"
   id="path7"
   style="fill:#f4a7b0" />

	<polygon
   class="st1"
   points="419.05,324.09 419.05,327.66 429.35,327.66 429.35,346.27 434.78,346.27 434.78,327.66 445.03,327.66 445.03,324.09 "
   id="polygon7"
   style="fill:#f4a7b0" />

	<path
   class="st1"
   d="m 460.38,335.78 5.5,-0.07 8,10.56 h -6.08 z m 3.39,-1.5 c 1.53,0 2.63,-0.29 3.3,-0.86 0.66,-0.57 0.99,-1.38 0.99,-2.45 0,-1.08 -0.34,-1.91 -1.01,-2.47 -0.67,-0.56 -1.77,-0.85 -3.28,-0.85 h -9.69 v 6.62 h 9.69 z M 448.64,324.1 h 16.69 c 2.74,0 4.78,0.58 6.13,1.76 1.35,1.17 2.02,2.85 2.02,5.04 0,2.16 -0.7,3.82 -2.1,4.98 -1.4,1.16 -3.53,1.74 -6.38,1.74 h -10.93 v 8.66 h -5.44 V 324.1 Z"
   id="path8"
   style="fill:#f4a7b0" />

	<path
   class="st1"
   d="m 481.34,344.12 c -2.27,-1.51 -3.41,-4.02 -3.41,-7.54 v -12.47 h 5.42 v 11.93 c 0,2.39 0.65,4.11 1.94,5.18 1.3,1.06 3.28,1.59 5.97,1.59 2.69,0 4.69,-0.53 5.98,-1.58 1.29,-1.06 1.94,-2.79 1.94,-5.18 v -11.93 h 5.42 v 12.47 c 0,3.52 -1.14,6.03 -3.42,7.54 -2.28,1.51 -5.59,2.27 -9.92,2.27 -4.34,-0.01 -7.65,-0.77 -9.92,-2.28"
   id="path9"
   style="fill:#f4a7b0" />

	<polygon
   class="st1"
   points="514.7,327.73 522.65,345.38 529.19,345.38 537.19,327.73 537.24,327.73 537.24,346.27 542.61,346.27 542.61,324.09 533.77,324.09 525.95,341.66 525.92,341.66 518.08,324.09 509.26,324.09 509.26,346.27 514.63,346.27 514.63,327.73 "
   id="polygon9"
   style="fill:#f4a7b0" />

	<polygon
   class="st1"
   points="547.39,324.09 547.39,346.27 570.23,346.27 570.23,342.71 552.81,342.71 552.81,336.68 568.99,336.68 568.99,333.34 552.81,333.34 552.81,327.66 570.23,327.66 570.23,324.09 "
   id="polygon10"
   style="fill:#f4a7b0" />

	<polygon
   class="st1"
   points="597.81,324.09 597.79,342.13 597.77,342.13 583.2,324.09 574.48,324.09 574.48,346.27 579.91,346.27 579.91,327.91 579.95,327.91 594.69,346.27 603.21,346.27 603.21,324.09 "
   id="polygon11"
   style="fill:#f4a7b0" />

	<polygon
   class="st1"
   points="607.63,324.09 607.63,327.66 617.93,327.66 617.93,346.27 623.35,346.27 623.35,327.66 633.6,327.66 633.6,324.09 "
   id="polygon12"
   style="fill:#f4a7b0" />

	<path
   class="st1"
   d="m 639.68,344.45 c -2.25,-1.29 -3.37,-3.35 -3.37,-6.18 h 5.42 c 0,1.7 0.72,2.88 2.15,3.56 1.43,0.67 3.33,1.01 5.7,1.01 2.34,0 4.24,-0.24 5.67,-0.71 1.44,-0.48 2.16,-1.18 2.16,-2.1 0,-1.01 -0.91,-1.69 -2.73,-2.05 -1.83,-0.36 -4.18,-0.76 -7.06,-1.18 -3.9,-0.54 -6.76,-1.23 -8.58,-2.08 -1.82,-0.85 -2.73,-2.25 -2.73,-4.2 0,-2.2 1.15,-3.86 3.45,-4.98 2.3,-1.12 5.54,-1.67 9.73,-1.67 4.25,0 7.51,0.65 9.79,1.94 2.28,1.3 3.42,3.31 3.42,6.04 h -5.45 c 0,-1.68 -0.73,-2.84 -2.2,-3.48 -1.47,-0.64 -3.34,-0.96 -5.62,-0.96 -2.39,0 -4.31,0.24 -5.76,0.73 -1.45,0.49 -2.18,1.17 -2.18,2.04 0,0.95 0.93,1.63 2.78,2.03 1.85,0.4 4.16,0.81 6.92,1.23 4.12,0.57 7.07,1.24 8.85,2.03 1.78,0.78 2.67,2.14 2.67,4.07 0,2.28 -1.12,3.99 -3.37,5.13 -2.24,1.14 -5.48,1.72 -9.71,1.72 -4.39,0 -7.7,-0.65 -9.95,-1.94"
   id="path12"
   style="fill:#f4a7b0" />

	<path
   class="st1"
   d="m 305.58,327.33 h -65.5 c -2.08,0 -3.48,-1.7 -3.13,-3.77 l 1.9,-8.12 c 0.49,-2.11 -1.71,-3.79 -3.79,-3.79 v 0 h -36.82 v -12.32 h 40.72 c 2.09,0 3.49,1.71 3.13,3.79 l -1.89,8.1 c -0.49,2.11 1.71,3.79 3.79,3.79 h 40.83 6.7 c 13.9,0 25.22,-11.31 25.22,-25.22 0,-13.9 -11.31,-25.22 -25.22,-25.22 h -38.03 c -2.08,0 -3.48,-1.7 -3.13,-3.77 l 1.9,-8.12 c 0.49,-2.11 -1.71,-3.79 -3.79,-3.79 H 183 c -2.09,0 -3.79,1.71 -3.79,3.79 v 11.47 c 0,2.09 1.71,3.8 3.79,3.8 h 62.68 c 2.09,0 3.49,1.71 3.13,3.79 l -1.89,8.1 c -0.49,2.11 1.71,3.8 3.8,3.8 h 40.83 c 3.4,0 6.16,2.76 6.16,6.16 0,3.4 -2.76,6.16 -6.16,6.16 h -6.7 -38.03 c -2.08,0 -3.48,-1.7 -3.13,-3.77 l 1.9,-8.12 c 0.49,-2.11 -1.71,-3.8 -3.8,-3.8 h -58.78 c -2.09,0 -3.79,1.71 -3.79,3.8 v 9.73 1.74 19.91 5.92 5.55 c 0,2.09 1.71,3.8 3.79,3.8 h 13.39 35.89 c 2.08,0 3.49,1.7 3.13,3.78 l -1.9,8.11 c 0,0 0,0 0,0.01 -0.48,2.1 1.69,3.77 3.76,3.79 0.01,0 0.02,0 0.03,0 h 68.3 c 2.09,0 3.79,-1.71 3.79,-3.79 v -11.47 c -0.03,-2.11 -1.73,-3.82 -3.82,-3.82"
   id="path13"
   style="fill:#f4a7b0" />

</g>
  <text
     xml:space="preserve"
     style="font-size:9.87777px;font-family:'Droid Sans Fallback';-inkscape-font-specification:'Droid Sans Fallback';fill:#241e46;fill-opacity:1;stroke:#e0e587;stroke-width:0;stroke-dasharray:none"
     x="25.017664"
     y="-7.5394802"
     id="text1"><tspan
       sodipodi:role="line"
       id="tspan1"
       style="font-style:normal;font-variant:normal;font-weight:normal;font-stretch:normal;font-size:3.52778px;font-family:'Nimbus Sans';-inkscape-font-specification:'Nimbus Sans, Normal';font-variant-ligatures:normal;font-variant-caps:normal;font-variant-numeric:normal;font-variant-east-asian:normal;fill:#f4a7b0;fill-opacity:1;stroke:#f4a7b0;stroke-width:0;stroke-dasharray:none;stroke-opacity:1"
       x="25.017664"
       y="-7.5394802">Myriad</tspan></text>
  <ellipse
     style="fill:#ffffff;fill-opacity:1;stroke:#241e46;stroke-width:0.246187"
     id="path3"
     ry="7.1328645"
     rx="4.5425701"
     cy="-38.827946"
     cx="30.61311" />
</svg>
