<?xml version="1.0" standalone="no"?>
<!DOCTYPE svg PUBLIC "-//W3C//DTD SVG 1.1//EN" "http://www.w3.org/Graphics/SVG/1.1/DTD/svg11.dtd">
<svg width="82mm" height="129mm" viewBox="0 -129 82 129" xmlns="http://www.w3.org/2000/svg" version="1.1">
<title>OpenSCAD Model</title>
<path d="
M 0,-0 L 81.28,-0 L 81.28,-128.5 L 0,-128.5 z
M 1.524,-3.4125 L 1.60231,-3.90693 L 1.82957,-4.35296 L 2.18354,-4.70693 L 2.62957,-4.93419 L 3.124,-5.0125
 L 7.036,-5.0125 L 7.53043,-4.93419 L 7.97646,-4.70693 L 8.33043,-4.35296 L 8.55769,-3.90693 L 8.636,-3.4125
 L 8.55769,-2.91807 L 8.33043,-2.47204 L 7.97646,-2.11807 L 7.53043,-1.89081 L 7.036,-1.8125 L 3.124,-1.8125
 L 2.62957,-1.89081 L 2.18354,-2.11807 L 1.82957,-2.47204 L 1.60231,-2.91807 z
M 1.524,-125.088 L 1.60231,-125.582 L 1.82957,-126.028 L 2.18354,-126.382 L 2.62957,-126.609 L 3.124,-126.687
 L 7.036,-126.687 L 7.53043,-126.609 L 7.97646,-126.382 L 8.33043,-126.028 L 8.55769,-125.582 L 8.636,-125.088
 L 8.55769,-124.593 L 8.33043,-124.147 L 7.97646,-123.793 L 7.53043,-123.566 L 7.036,-123.488 L 3.124,-123.488
 L 2.62957,-123.566 L 2.18354,-123.793 L 1.82957,-124.147 L 1.60231,-124.593 z
M 6.27,-47 L 6.58971,-48.6073 L 7.50015,-49.9698 L 8.86273,-50.8803 L 10.47,-51.2 L 12.0773,-50.8803
 L 13.4398,-49.9698 L 14.3503,-48.6073 L 14.67,-47 L 14.3503,-45.3927 L 13.4398,-44.0302 L 12.0773,-43.1197
 L 10.47,-42.8 L 8.86273,-43.1197 L 7.50015,-44.0302 L 6.58971,-45.3927 z
M 6.27,-102.6 L 6.53642,-103.939 L 7.29513,-105.075 L 8.43061,-105.834 L 9.77,-106.1 L 11.1094,-105.834
 L 12.2449,-105.075 L 13.0036,-103.939 L 13.27,-102.6 L 13.0036,-101.261 L 12.2449,-100.125 L 11.1094,-99.3664
 L 9.77,-99.1 L 8.43061,-99.3664 L 7.29513,-100.125 L 6.53642,-101.261 z
M 7.57,-20 L 7.88209,-21.569 L 8.77086,-22.8991 L 10.101,-23.7879 L 11.67,-24.1 L 13.239,-23.7879
 L 14.5691,-22.8991 L 15.4579,-21.569 L 15.77,-20 L 15.4579,-18.431 L 14.5691,-17.1009 L 13.239,-16.2121
 L 11.67,-15.9 L 10.101,-16.2121 L 8.77086,-17.1009 L 7.88209,-18.431 z
M 8.48,-67.5 L 8.79971,-69.1073 L 9.71015,-70.4698 L 11.0727,-71.3803 L 12.68,-71.7 L 14.2873,-71.3803
 L 15.6498,-70.4698 L 16.5603,-69.1073 L 16.88,-67.5 L 16.5603,-65.8927 L 15.6498,-64.5302 L 14.2873,-63.6197
 L 12.68,-63.3 L 11.0727,-63.6197 L 9.71015,-64.5302 L 8.79971,-65.8927 z
M 18.64,-106.63 L 18.9064,-107.969 L 19.6651,-109.105 L 20.8006,-109.864 L 22.14,-110.13 L 23.4794,-109.864
 L 24.6149,-109.105 L 25.3736,-107.969 L 25.64,-106.63 L 25.3736,-105.291 L 24.6149,-104.155 L 23.4794,-103.396
 L 22.14,-103.13 L 20.8006,-103.396 L 19.6651,-104.155 L 18.9064,-105.291 z
M 23.68,-81.84 L 23.9997,-83.4473 L 24.9102,-84.8098 L 26.2727,-85.7203 L 27.88,-86.04 L 29.4873,-85.7203
 L 30.8498,-84.8098 L 31.7603,-83.4473 L 32.08,-81.84 L 31.7603,-80.2327 L 30.8498,-78.8702 L 29.4873,-77.9597
 L 27.88,-77.64 L 26.2727,-77.9597 L 24.9102,-78.8702 L 23.9997,-80.2327 z
M 23.87,-49.41 L 24.2415,-52.9445 L 25.3397,-56.3245 L 27.1167,-59.4023 L 29.4948,-62.0435 L 32.37,-64.1324
 L 35.6167,-65.578 L 39.093,-66.3169 L 42.647,-66.3169 L 46.1233,-65.578 L 49.37,-64.1324 L 52.2452,-62.0435
 L 54.6233,-59.4023 L 56.4003,-56.3245 L 57.4985,-52.9445 L 57.87,-49.41 L 57.4985,-45.8755 L 56.4003,-42.4955
 L 54.6233,-39.4177 L 52.2452,-36.7765 L 49.37,-34.6876 L 46.1233,-33.242 L 42.647,-32.5031 L 39.093,-32.5031
 L 35.6167,-33.242 L 32.37,-34.6876 L 29.4948,-36.7765 L 27.1167,-39.4177 L 25.3397,-42.4955 L 24.2415,-45.8755
 z
M 31.08,-110.16 L 31.3464,-111.499 L 32.1051,-112.635 L 33.2406,-113.394 L 34.58,-113.66 L 35.9194,-113.394
 L 37.0549,-112.635 L 37.8136,-111.499 L 38.08,-110.16 L 37.8136,-108.821 L 37.0549,-107.685 L 35.9194,-106.926
 L 34.58,-106.66 L 33.2406,-106.926 L 32.1051,-107.685 L 31.3464,-108.821 z
M 37.87,-19 L 38.1821,-20.569 L 39.0709,-21.8991 L 40.401,-22.7879 L 41.97,-23.1 L 43.539,-22.7879
 L 44.8691,-21.8991 L 45.7579,-20.569 L 46.07,-19 L 45.7579,-17.431 L 44.8691,-16.1009 L 43.539,-15.2121
 L 41.97,-14.9 L 40.401,-15.2121 L 39.0709,-16.1009 L 38.1821,-17.431 z
M 43.44,-110.2 L 43.7064,-111.539 L 44.4651,-112.675 L 45.6006,-113.434 L 46.94,-113.7 L 48.2794,-113.434
 L 49.4149,-112.675 L 50.1736,-111.539 L 50.44,-110.2 L 50.1736,-108.861 L 49.4149,-107.725 L 48.2794,-106.966
 L 46.94,-106.7 L 45.6006,-106.966 L 44.4651,-107.725 L 43.7064,-108.861 z
M 48.28,-81.84 L 48.5997,-83.4473 L 49.5102,-84.8098 L 50.8727,-85.7203 L 52.48,-86.04 L 54.0873,-85.7203
 L 55.4498,-84.8098 L 56.3603,-83.4473 L 56.68,-81.84 L 56.3603,-80.2327 L 55.4498,-78.8702 L 54.0873,-77.9597
 L 52.48,-77.64 L 50.8727,-77.9597 L 49.5102,-78.8702 L 48.5997,-80.2327 z
M 55.83,-106.63 L 56.0964,-107.969 L 56.8551,-109.105 L 57.9906,-109.864 L 59.33,-110.13 L 60.6694,-109.864
 L 61.8049,-109.105 L 62.5636,-107.969 L 62.83,-106.63 L 62.5636,-105.291 L 61.8049,-104.155 L 60.6694,-103.396
 L 59.33,-103.13 L 57.9906,-103.396 L 56.8551,-104.155 L 56.0964,-105.291 z
M 63.27,-67.5 L 63.5897,-69.1073 L 64.5002,-70.4698 L 65.8627,-71.3803 L 67.47,-71.7 L 69.0773,-71.3803
 L 70.4398,-70.4698 L 71.3503,-69.1073 L 71.67,-67.5 L 71.3503,-65.8927 L 70.4398,-64.5302 L 69.0773,-63.6197
 L 67.47,-63.3 L 65.8627,-63.6197 L 64.5002,-64.5302 L 63.5897,-65.8927 z
M 65.47,-46.89 L 65.7897,-48.4973 L 66.7002,-49.8598 L 68.0627,-50.7703 L 69.67,-51.09 L 71.2773,-50.7703
 L 72.6398,-49.8598 L 73.5503,-48.4973 L 73.87,-46.89 L 73.5503,-45.2827 L 72.6398,-43.9202 L 71.2773,-43.0097
 L 69.67,-42.69 L 68.0627,-43.0097 L 66.7002,-43.9202 L 65.7897,-45.2827 z
M 65.56,-20 L 65.8721,-21.569 L 66.7609,-22.8991 L 68.091,-23.7879 L 69.66,-24.1 L 71.229,-23.7879
 L 72.5591,-22.8991 L 73.4479,-21.569 L 73.76,-20 L 73.4479,-18.431 L 72.5591,-17.1009 L 71.229,-16.2121
 L 69.66,-15.9 L 68.091,-16.2121 L 66.7609,-17.1009 L 65.8721,-18.431 z
M 68.21,-102.6 L 68.4764,-103.939 L 69.2351,-105.075 L 70.3706,-105.834 L 71.71,-106.1 L 73.0494,-105.834
 L 74.1849,-105.075 L 74.9436,-103.939 L 75.21,-102.6 L 74.9436,-101.261 L 74.1849,-100.125 L 73.0494,-99.3664
 L 71.71,-99.1 L 70.3706,-99.3664 L 69.2351,-100.125 L 68.4764,-101.261 z
M 70.688,-3.4125 L 70.7663,-3.90693 L 70.9936,-4.35296 L 71.3475,-4.70693 L 71.7936,-4.93419 L 72.288,-5.0125
 L 76.2,-5.0125 L 76.6944,-4.93419 L 77.1405,-4.70693 L 77.4944,-4.35296 L 77.7217,-3.90693 L 77.8,-3.4125
 L 77.7217,-2.91807 L 77.4944,-2.47204 L 77.1405,-2.11807 L 76.6944,-1.89081 L 76.2,-1.8125 L 72.288,-1.8125
 L 71.7936,-1.89081 L 71.3475,-2.11807 L 70.9936,-2.47204 L 70.7663,-2.91807 z
M 70.688,-125.088 L 70.7663,-125.582 L 70.9936,-126.028 L 71.3475,-126.382 L 71.7936,-126.609 L 72.288,-126.687
 L 76.2,-126.687 L 76.6944,-126.609 L 77.1405,-126.382 L 77.4944,-126.028 L 77.7217,-125.582 L 77.8,-125.088
 L 77.7217,-124.593 L 77.4944,-124.147 L 77.1405,-123.793 L 76.6944,-123.566 L 76.2,-123.488 L 72.288,-123.488
 L 71.7936,-123.566 L 71.3475,-123.793 L 70.9936,-124.147 L 70.7663,-124.593 z
" stroke="black" fill="lightgray" stroke-width="0.5"/>
</svg>
